<?xml version="1.0" encoding="UTF-8"?>
<svg xmlns="http://www.w3.org/2000/svg" xmlns:xlink="http://www.w3.org/1999/xlink" id="Layer_2" viewBox="0 0 694.51 694.49">
  <defs>
    <style>.cls-1{clip-path:url(#clippath);}.cls-2,.cls-3{fill:#ee1b2c;}.cls-4,.cls-5,.cls-3{stroke-width:0px;}.cls-5{fill:#fff;}</style>
    <clipPath id="clippath">
      <circle class="cls-3" cx="347.27" cy="347.24" r="347.24"></circle>
    </clipPath>
  </defs>
  <g id="July_2022">
    <circle class="cls-2" cx="347.27" cy="347.24" r="347.24"></circle>
    <g class="cls-1">
      <g id="mask0_176_112">
        <polygon class="cls-5" points="1.12 230.74 693.41 230.74 694.51 460.78 0 460.78 .61 336.07 1.12 230.74"></polygon>
      </g>
    </g>
    <path class="cls-3" d="m261.91,304.57h9.51l-43,78.22h-9.41l42.9-78.22Z"></path>
    <path class="cls-3" d="m241.98,304.57h12.65l-42.9,78.22h-12.65l42.9-78.22Z"></path>
    <path class="cls-3" d="m215.77,304.57h19.02l-43.11,78.22h-18.82l42.9-78.22Z"></path>
    <path class="cls-3" d="m180.06,304.57h28.43l-43,78.22h-28.33l42.9-78.22Z"></path>
    <path class="cls-3" d="m131.89,304.57h40.78l-42.8,78.22h-40.88l42.9-78.22Z"></path>
    <path class="cls-3" d="m33.44,304.57v78.22h48.16l42.9-78.22H33.44Z"></path>
    <path class="cls-4" d="m363,291.92h-65.36l8.3,12.95-42.5,77.81h35.01l18.11-33.29c.4-1.32,1.92-2.33,3.44-2.33,1.82,0,3.24.91,3.64,2.83.1.81.1,1.32-.1,1.72l-14.06,26.11-.1.4c-.3.41-.4,1.21-.4,1.82,0,1.62,1.31,2.83,3.04,2.83h39.16l-7.59-11.84,13.15-24.49s.51-1.01.51-2.23c0-2.83-1.82-5.26-4.25-6.17,0,0,2.43,1.01,3.85,1.01,2.63,0,4.96-1.52,5.97-3.85l13.76-25.4c.61-1.92.81-3.24.81-4.05-.2-7.79-6.78-13.86-14.37-13.86Zm-17.71,19.73l-9.51,17.4h-8.3l11.03-20.34c.61-1.21,1.72-1.92,3.24-1.92,2.02,0,3.74,1.52,3.74,3.64,0,.4-.1.81-.2,1.21Z"></path>
    <path class="cls-4" d="m426.84,304.87h-25.9l-6.78.1c-4.96,0-9.71,2.83-11.74,6.98l-29.04,53.53c-.3,1.21-.61,2.23-.61,3.64,0,8.2,6.88,13.66,15.08,13.66h33.69c5.77,0,8.5-2.23,10.73-5.67l11.94-22.16-26.81.1-4.75,8.3c-.51,1.21-1.92,2.73-3.34,2.73-1.92,0-3.24-1.62-3.24-3.54,0-.51.1-.91.3-1.32l6.38-11.74h34.71l12.34-22.67c1.21-2.23,2.02-4.76,2.02-7.49-.3-8.4-6.58-14.47-14.98-14.47Zm-12.44,18.42l-5.16,9.51h-7.69l6.48-11.84c.51-1.32,1.72-2.13,3.24-2.13,1.92,0,3.34,1.52,3.34,3.44.1.3-.1.71-.2,1.01Z"></path>
    <path class="cls-4" d="m652.69,305.08h-37.84c-6.78,0-12.55,4.15-14.87,10.02l-24.28,44.32-.51,1.32c-.51,1.72-1.11,2.83-1.11,4.65,0,10.12,5.16,15.89,16.09,17.3h27.12c7.08,0,12.85-2.73,16.7-7.99l1.01-1.52,28.64-52.82c.2-.81.81-2.63.81-3.44.1-6.58-5.26-11.84-11.74-11.84Zm-19.83,18.52l-23.27,42.9c-.81,1.11-2.02,2.02-3.54,1.92-2.73-.2-4.55-2.33-4.45-4.45,0-.61.1-1.21.3-1.72l23.37-43.21c.81-1.21,2.53-2.02,4.05-2.02,2.43,0,3.95,2.02,3.95,4.45.2.71,0,1.42-.41,2.12Z"></path>
    <path class="cls-4" d="m552.72,339.48l8.3-15.28c.51-1.32.61-1.82.61-2.53-.1-2.12-1.42-4.65-4.55-4.76-1.52,0-3.44.81-4.15,2.02l-23.37,43.1c-.2.51-.3,1.11-.3,1.72,0,2.43,2.13,4.45,5.06,4.45,1.52,0,2.83-.4,3.74-1.62l10.73-19.33,26.61-.1-13.96,25.8-1.01,1.52c-3.95,5.36-9.71,8.09-16.8,8.09h-27.12c-10.73-1.31-17.1-8.2-16.39-15.58.2-2.02,1.11-4.55,1.92-6.17l24.18-45.74c2.73-5.87,7.08-10.02,13.96-10.02l5.67-.1h32.99c6.48,0,13.15,6.27,11.94,12.34-.51,2.53-2.83,6.88-3.34,7.79l-7.79,14.27-26.92.1Z"></path>
    <path class="cls-4" d="m487.96,373.07l-1.11,1.52c-3.95,5.36-9.71,8.1-16.8,8.1h-14.37l30.96-56.97c.3-.51.51-1.11.51-1.82,0-1.82-1.52-3.34-3.34-3.34-1.42,0-2.73.91-3.14,2.23l-2.83,5.46-40.88,75.18h-31.47l47.66-87.73-7.49-10.83,56.16.1c7.69,0,13.86,6.07,13.86,13.76,0,1.52-.51,3.84-1.82,6.68l-25.9,47.66Z"></path>
  </g>
</svg>
