<?xml version="1.0" encoding="UTF-8"?>
<svg xmlns="http://www.w3.org/2000/svg" id="Layer_3" viewBox="0 0 250 250">
  <defs>
    <style>.cls-1{fill:#006da7;stroke-width:0px;}</style>
  </defs>
  <polygon class="cls-1" points="180.51 159.32 191.96 159.32 189.94 138.45 180.51 159.32"></polygon>
  <polygon class="cls-1" points="103.86 159.32 115.3 159.32 113.29 138.45 103.86 159.32"></polygon>
  <path class="cls-1" d="M125,7.6C58.73,7.6,5,61.33,5,127.6s53.73,120,120,120,120-53.73,120-120S191.27,7.6,125,7.6ZM146.47,88.09c1.53-12.11,7.65-15.62,20.68-15.62h0c6.85.18,10.9.74,14.64,2.14,0,0,.02,0,.03.01l-2.39,11.32c-.43-.09-.91-.19-1.42-.3-2.67-.62-6.11-1.2-9.46-1.42-.9-.06-1.79-.09-2.66-.09-3.53,0-4.24.51-4.63,2.59-.54,2.87,1.69,3.36,6.18,4.3,8,1.68,13.21,6.39,11.29,15.06-2.31,10.45-7.96,15.77-21.14,15.77h-.04c-2.22,0-4.43-.19-6.62-.55-4.23-.69-7.71-1.57-10.9-2.73l3.11-10.99c.59.2,1.22.4,1.88.6,1.55.47,3.08.86,4.61,1.18,2.93.6,5.87.91,8.99.91,3.74,0,5.03-.94,5.63-3.22.69-2.57-.58-2.88-5.8-4.59-9.44-3.1-13.09-5.59-11.98-14.36ZM93.27,73.18l-.6,28.51,11.32-28.51h16.49l1.27,28.51,9.44-28.51h15.02l-19.13,47.95h-16.37l-1.31-31.9-12.46,31.9h-16.5l-2.2-47.95h15.01ZM80.86,168.93c-.62,1.76-1.53,3.39-2.99,4.75-.01.01-.02.02-.03.03-1.25,1.15-2.9,2.11-5.09,2.77-1.1.33-2.33.59-3.72.77-1.39.18-2.93.27-4.65.27h-19.58l.99-5.59.67-3.77h17.92c5.69,0,6.69-2.16,7.34-5.97l2.78-15.88.25-1.4c.14-.72.22-1.37.22-1.94,0-2.59-1.51-4.03-6.05-4.03h-6.69l-5.14,28.96h0s-1.6-1.68-1.6-1.68l-7.32-7.69,2.17-12.22,2.96-16.73h18.28c10.37,0,14.18,5.69,14.18,11.73,0,.86-.07,1.8-.22,2.66l-.41,2.34-3.33,18.83c-.22,1.29-.51,2.56-.94,3.78ZM117.32,177.54l-1.01-9.43h-16.34l-4.32,9.43h-11.44l23.03-47.94h14.47l6.84,47.94h-11.23ZM149.64,177.54h-10.65l6.77-38.58h-12.96l1.66-9.36h36.57l-1.66,9.36h-12.96l-6.77,38.58ZM193.97,177.54l-1.01-9.43h-16.34l-4.32,9.43h-11.45l23.03-47.94h14.47l6.84,47.94h-11.23Z"></path>
</svg>
